<svg xmlns="http://www.w3.org/2000/svg" xmlns:xlink="http://www.w3.org/1999/xlink" width="50" height="43" viewBox="0 0 50 43"><defs><path id="gpyba" d="M410.96 40.39c-6.07.17-10.58 4.88-10.58 10.98a8.23 8.23 0 0 0 8.29 8.25h1.44a5.73 5.73 0 0 0 5.71-5.75 3.4 3.4 0 0 0-3.44-3.41c-.63 0-1.23.28-1.66.74l-.62.66c-.56.6-1.5.73-2.15.23a1.6 1.6 0 0 1-.2-2.34l.4-.44a5.88 5.88 0 0 1 4.33-1.9 6.4 6.4 0 0 1 6.38 6.41 8.83 8.83 0 0 1-8.8 8.85h-1.38a11.41 11.41 0 0 1-11.39-11.44c0-7.68 6.2-13.9 13.83-13.9h19.59c4.03 0 7.29-3.28 7.29-7.33h-26.8c-11.7 0-21.2 9.54-21.2 21.3 0 10.33 8.33 18.7 18.6 18.7h1.54c8.68 0 15.7-7.07 15.7-15.78v-.81c0-2.27-.57-4.48-1.58-6.31h1.9c3.68 0 6.68-3 6.68-6.72z"/></defs><g><g transform="translate(-389 -28)"><use fill="#fff" xlink:href="#gpyba"/></g></g></svg>